<mxfile host="app.diagrams.net" agent="Mozilla/5.0 (Windows NT 10.0; Win64; x64; rv:133.0) Gecko/20100101 Firefox/133.0" scale="1" border="0" version="26.0.2">
  <diagram name="Page-1" id="2YBvvXClWsGukQMizWep">
    <mxGraphModel dx="2868" dy="2592" grid="1" gridSize="10" guides="1" tooltips="1" connect="1" arrows="1" fold="1" page="1" pageScale="1" pageWidth="850" pageHeight="1100" math="0" shadow="0">
      <root>
        <mxCell id="0" />
        <mxCell id="1" parent="0" />
        <mxCell id="QDihuIbp6Lw-h8ZXW96g-6" value=":Object" style="shape=umlLifeline;perimeter=lifelinePerimeter;whiteSpace=wrap;html=1;container=1;dropTarget=0;collapsible=0;recursiveResize=0;outlineConnect=0;portConstraint=eastwest;newEdgeStyle={&quot;curved&quot;:0,&quot;rounded&quot;:0};" parent="1" vertex="1">
          <mxGeometry x="780" y="-10" width="100" height="980" as="geometry" />
        </mxCell>
        <mxCell id="CObYJEAy56xA2G8EUnc1-1" value="S&amp;amp;C" style="shape=umlLifeline;perimeter=lifelinePerimeter;whiteSpace=wrap;html=1;container=1;dropTarget=0;collapsible=0;recursiveResize=0;outlineConnect=0;portConstraint=eastwest;newEdgeStyle={&quot;edgeStyle&quot;:&quot;elbowEdgeStyle&quot;,&quot;elbow&quot;:&quot;vertical&quot;,&quot;curved&quot;:0,&quot;rounded&quot;:0};" parent="1" vertex="1">
          <mxGeometry x="320" width="100" height="970" as="geometry" />
        </mxCell>
        <mxCell id="hh9Ni2VgHgSeFQTvjpv2-1" value="" style="html=1;points=[[0,0,0,0,5],[0,1,0,0,-5],[1,0,0,0,5],[1,1,0,0,-5]];perimeter=orthogonalPerimeter;outlineConnect=0;targetShapes=umlLifeline;portConstraint=eastwest;newEdgeStyle={&quot;curved&quot;:0,&quot;rounded&quot;:0};" parent="CObYJEAy56xA2G8EUnc1-1" vertex="1">
          <mxGeometry x="45" y="74" width="10" height="96" as="geometry" />
        </mxCell>
        <mxCell id="jShqwbApxvPrVttutkd5-6" value="" style="html=1;points=[[0,0,0,0,5],[0,1,0,0,-5],[1,0,0,0,5],[1,1,0,0,-5]];perimeter=orthogonalPerimeter;outlineConnect=0;targetShapes=umlLifeline;portConstraint=eastwest;newEdgeStyle={&quot;curved&quot;:0,&quot;rounded&quot;:0};" parent="CObYJEAy56xA2G8EUnc1-1" vertex="1">
          <mxGeometry x="45" y="360" width="10" height="60" as="geometry" />
        </mxCell>
        <mxCell id="jShqwbApxvPrVttutkd5-69" value="" style="html=1;points=[[0,0,0,0,5],[0,1,0,0,-5],[1,0,0,0,5],[1,1,0,0,-5]];perimeter=orthogonalPerimeter;outlineConnect=0;targetShapes=umlLifeline;portConstraint=eastwest;newEdgeStyle={&quot;curved&quot;:0,&quot;rounded&quot;:0};" parent="CObYJEAy56xA2G8EUnc1-1" vertex="1">
          <mxGeometry x="45" y="456" width="10" height="484" as="geometry" />
        </mxCell>
        <mxCell id="CObYJEAy56xA2G8EUnc1-6" value="" style="shape=umlLifeline;perimeter=lifelinePerimeter;whiteSpace=wrap;html=1;container=1;dropTarget=0;collapsible=0;recursiveResize=0;outlineConnect=0;portConstraint=eastwest;newEdgeStyle={&quot;curved&quot;:0,&quot;rounded&quot;:0};participant=umlActor;" parent="1" vertex="1">
          <mxGeometry x="110" width="20" height="970" as="geometry" />
        </mxCell>
        <mxCell id="CObYJEAy56xA2G8EUnc1-7" value="Company" style="text;html=1;align=center;verticalAlign=middle;resizable=0;points=[];autosize=1;strokeColor=none;fillColor=none;" parent="1" vertex="1">
          <mxGeometry x="135" y="10" width="80" height="30" as="geometry" />
        </mxCell>
        <mxCell id="CObYJEAy56xA2G8EUnc1-8" value="" style="edgeStyle=elbowEdgeStyle;fontSize=12;html=1;endArrow=blockThin;endFill=1;rounded=0;" parent="1" edge="1">
          <mxGeometry width="160" relative="1" as="geometry">
            <mxPoint x="120.10000000000002" y="74" as="sourcePoint" />
            <mxPoint x="369.5" y="74" as="targetPoint" />
            <Array as="points">
              <mxPoint x="270" y="74" />
            </Array>
          </mxGeometry>
        </mxCell>
        <mxCell id="CObYJEAy56xA2G8EUnc1-9" value="requestApplicationList(internship)" style="text;html=1;align=center;verticalAlign=middle;resizable=0;points=[];autosize=1;strokeColor=none;fillColor=none;" parent="1" vertex="1">
          <mxGeometry x="140" y="50" width="210" height="30" as="geometry" />
        </mxCell>
        <mxCell id="CObYJEAy56xA2G8EUnc1-15" value="&lt;b&gt;Interaction&lt;/b&gt; Further Assessment for Application" style="shape=umlFrame;whiteSpace=wrap;html=1;pointerEvents=0;width=300;height=30;" parent="1" vertex="1">
          <mxGeometry x="60" y="-60" width="1090" height="1070" as="geometry" />
        </mxCell>
        <mxCell id="QDihuIbp6Lw-h8ZXW96g-1" value="API" style="shape=module;align=left;spacingLeft=20;align=center;verticalAlign=top;whiteSpace=wrap;html=1;" parent="1" vertex="1">
          <mxGeometry x="310" y="-10" width="110" height="50" as="geometry" />
        </mxCell>
        <mxCell id="QDihuIbp6Lw-h8ZXW96g-2" value=":Object" style="shape=umlLifeline;perimeter=lifelinePerimeter;whiteSpace=wrap;html=1;container=1;dropTarget=0;collapsible=0;recursiveResize=0;outlineConnect=0;portConstraint=eastwest;newEdgeStyle={&quot;curved&quot;:0,&quot;rounded&quot;:0};" parent="1" vertex="1">
          <mxGeometry x="550" width="100" height="970" as="geometry" />
        </mxCell>
        <mxCell id="QDihuIbp6Lw-h8ZXW96g-15" value="" style="html=1;points=[[0,0,0,0,5],[0,1,0,0,-5],[1,0,0,0,5],[1,1,0,0,-5]];perimeter=orthogonalPerimeter;outlineConnect=0;targetShapes=umlLifeline;portConstraint=eastwest;newEdgeStyle={&quot;curved&quot;:0,&quot;rounded&quot;:0};" parent="QDihuIbp6Lw-h8ZXW96g-2" vertex="1">
          <mxGeometry x="45" y="80" width="10" height="70" as="geometry" />
        </mxCell>
        <mxCell id="QDihuIbp6Lw-h8ZXW96g-4" value="ProfileManager" style="shape=module;align=left;spacingLeft=20;align=center;verticalAlign=top;whiteSpace=wrap;html=1;" parent="1" vertex="1">
          <mxGeometry x="540" y="-10" width="110" height="50" as="geometry" />
        </mxCell>
        <mxCell id="QDihuIbp6Lw-h8ZXW96g-5" value="ApplicationManager" style="shape=module;align=left;spacingLeft=20;align=center;verticalAlign=top;whiteSpace=wrap;html=1;" parent="1" vertex="1">
          <mxGeometry x="750" y="-10" width="140" height="50" as="geometry" />
        </mxCell>
        <mxCell id="QDihuIbp6Lw-h8ZXW96g-8" value=":Object" style="shape=umlLifeline;perimeter=lifelinePerimeter;whiteSpace=wrap;html=1;container=1;dropTarget=0;collapsible=0;recursiveResize=0;outlineConnect=0;portConstraint=eastwest;newEdgeStyle={&quot;curved&quot;:0,&quot;rounded&quot;:0};" parent="1" vertex="1">
          <mxGeometry x="1010" y="-10" width="100" height="980" as="geometry" />
        </mxCell>
        <mxCell id="QDihuIbp6Lw-h8ZXW96g-33" value="" style="html=1;points=[[0,0,0,0,5],[0,1,0,0,-5],[1,0,0,0,5],[1,1,0,0,-5]];perimeter=orthogonalPerimeter;outlineConnect=0;targetShapes=umlLifeline;portConstraint=eastwest;newEdgeStyle={&quot;curved&quot;:0,&quot;rounded&quot;:0};" parent="QDihuIbp6Lw-h8ZXW96g-8" vertex="1">
          <mxGeometry x="45" y="100" width="10" height="40" as="geometry" />
        </mxCell>
        <mxCell id="SL6PgUiu9ieBlHFa4yMH-6" value="" style="html=1;points=[[0,0,0,0,5],[0,1,0,0,-5],[1,0,0,0,5],[1,1,0,0,-5]];perimeter=orthogonalPerimeter;outlineConnect=0;targetShapes=umlLifeline;portConstraint=eastwest;newEdgeStyle={&quot;curved&quot;:0,&quot;rounded&quot;:0};" parent="QDihuIbp6Lw-h8ZXW96g-8" vertex="1">
          <mxGeometry x="45" y="252" width="10" height="40" as="geometry" />
        </mxCell>
        <mxCell id="QDihuIbp6Lw-h8ZXW96g-11" value="Database" style="shape=module;align=left;spacingLeft=20;align=center;verticalAlign=top;whiteSpace=wrap;html=1;" parent="1" vertex="1">
          <mxGeometry x="1000" y="-10" width="110" height="50" as="geometry" />
        </mxCell>
        <mxCell id="QDihuIbp6Lw-h8ZXW96g-13" value="requestApplicationList(internship)" style="text;html=1;align=center;verticalAlign=middle;resizable=0;points=[];autosize=1;strokeColor=none;fillColor=none;" parent="1" vertex="1">
          <mxGeometry x="382" y="55" width="210" height="30" as="geometry" />
        </mxCell>
        <mxCell id="QDihuIbp6Lw-h8ZXW96g-14" value="ApplicationListPage" style="html=1;verticalAlign=bottom;endArrow=open;dashed=1;endSize=8;curved=0;rounded=0;" parent="1" source="QDihuIbp6Lw-h8ZXW96g-15" target="hh9Ni2VgHgSeFQTvjpv2-1" edge="1">
          <mxGeometry x="-0.0023" relative="1" as="geometry">
            <mxPoint x="599" y="150" as="sourcePoint" />
            <mxPoint x="369" y="150" as="targetPoint" />
            <Array as="points">
              <mxPoint x="505" y="150" />
            </Array>
            <mxPoint as="offset" />
          </mxGeometry>
        </mxCell>
        <mxCell id="QDihuIbp6Lw-h8ZXW96g-16" value="getApplicationListByInternshipPosition(internship)" style="text;html=1;align=center;verticalAlign=middle;resizable=0;points=[];autosize=1;strokeColor=none;fillColor=none;" parent="1" vertex="1">
          <mxGeometry x="682" y="66" width="300" height="30" as="geometry" />
        </mxCell>
        <mxCell id="QDihuIbp6Lw-h8ZXW96g-21" value="redirectToApplicationListPage(internship)" style="html=1;verticalAlign=bottom;endArrow=open;dashed=1;endSize=8;curved=0;rounded=0;" parent="1" target="CObYJEAy56xA2G8EUnc1-6" edge="1">
          <mxGeometry relative="1" as="geometry">
            <mxPoint x="370" y="170" as="sourcePoint" />
            <mxPoint x="140" y="170" as="targetPoint" />
            <Array as="points" />
          </mxGeometry>
        </mxCell>
        <mxCell id="QDihuIbp6Lw-h8ZXW96g-23" value="requestApplicationPage(application)" style="text;html=1;align=center;verticalAlign=middle;resizable=0;points=[];autosize=1;strokeColor=none;fillColor=none;" parent="1" vertex="1">
          <mxGeometry x="490" y="207" width="220" height="30" as="geometry" />
        </mxCell>
        <mxCell id="QDihuIbp6Lw-h8ZXW96g-24" value="ApplicationList" style="html=1;verticalAlign=bottom;endArrow=open;dashed=1;endSize=8;curved=0;rounded=0;" parent="1" edge="1">
          <mxGeometry x="-0.0005" relative="1" as="geometry">
            <mxPoint x="1059.25" y="129.97000000000003" as="sourcePoint" />
            <mxPoint x="604.75" y="129.97000000000003" as="targetPoint" />
            <Array as="points">
              <mxPoint x="735.75" y="129.97" />
            </Array>
            <mxPoint as="offset" />
          </mxGeometry>
        </mxCell>
        <mxCell id="QDihuIbp6Lw-h8ZXW96g-25" value="getApplicationDetails(application)" style="text;html=1;align=center;verticalAlign=middle;resizable=0;points=[];autosize=1;strokeColor=none;fillColor=none;" parent="1" vertex="1">
          <mxGeometry x="839" y="217" width="210" height="30" as="geometry" />
        </mxCell>
        <mxCell id="QDihuIbp6Lw-h8ZXW96g-27" value="" style="edgeStyle=elbowEdgeStyle;fontSize=12;html=1;endArrow=blockThin;endFill=1;rounded=0;" parent="1" target="SL6PgUiu9ieBlHFa4yMH-6" edge="1">
          <mxGeometry width="160" relative="1" as="geometry">
            <mxPoint x="835" y="242" as="sourcePoint" />
            <mxPoint x="1055" y="242" as="targetPoint" />
            <Array as="points">
              <mxPoint x="960" y="242" />
            </Array>
          </mxGeometry>
        </mxCell>
        <mxCell id="QDihuIbp6Lw-h8ZXW96g-28" value="" style="html=1;points=[[0,0,0,0,5],[0,1,0,0,-5],[1,0,0,0,5],[1,1,0,0,-5]];perimeter=orthogonalPerimeter;outlineConnect=0;targetShapes=umlLifeline;portConstraint=eastwest;newEdgeStyle={&quot;curved&quot;:0,&quot;rounded&quot;:0};" parent="1" vertex="1">
          <mxGeometry x="825" y="230" width="10" height="680" as="geometry" />
        </mxCell>
        <mxCell id="QDihuIbp6Lw-h8ZXW96g-29" value="applicationDetails" style="html=1;verticalAlign=bottom;endArrow=open;dashed=1;endSize=8;curved=0;rounded=0;" parent="1" target="QDihuIbp6Lw-h8ZXW96g-28" edge="1">
          <mxGeometry relative="1" as="geometry">
            <mxPoint x="1060" y="282.05" as="sourcePoint" />
            <mxPoint x="835" y="282.05" as="targetPoint" />
            <Array as="points">
              <mxPoint x="971" y="281" />
            </Array>
          </mxGeometry>
        </mxCell>
        <mxCell id="QDihuIbp6Lw-h8ZXW96g-30" value="" style="html=1;points=[[0,0,0,0,5],[0,1,0,0,-5],[1,0,0,0,5],[1,1,0,0,-5]];perimeter=orthogonalPerimeter;outlineConnect=0;targetShapes=umlLifeline;portConstraint=eastwest;newEdgeStyle={&quot;curved&quot;:0,&quot;rounded&quot;:0};" parent="1" vertex="1">
          <mxGeometry x="365" y="222" width="10" height="88" as="geometry" />
        </mxCell>
        <mxCell id="QDihuIbp6Lw-h8ZXW96g-32" value="ApplicationDetailsPage" style="html=1;verticalAlign=bottom;endArrow=open;dashed=1;endSize=8;curved=0;rounded=0;" parent="1" edge="1">
          <mxGeometry x="0.0011" relative="1" as="geometry">
            <mxPoint x="825" y="290" as="sourcePoint" />
            <mxPoint x="375.0000000000001" y="290" as="targetPoint" />
            <Array as="points">
              <mxPoint x="800" y="290" />
            </Array>
            <mxPoint as="offset" />
          </mxGeometry>
        </mxCell>
        <mxCell id="QDihuIbp6Lw-h8ZXW96g-3" value="" style="edgeStyle=elbowEdgeStyle;fontSize=12;html=1;endArrow=blockThin;endFill=1;rounded=0;" parent="1" source="hh9Ni2VgHgSeFQTvjpv2-1" edge="1">
          <mxGeometry width="160" relative="1" as="geometry">
            <mxPoint x="370" y="80" as="sourcePoint" />
            <mxPoint x="599.5" y="80" as="targetPoint" />
            <Array as="points">
              <mxPoint x="495" y="80" />
            </Array>
          </mxGeometry>
        </mxCell>
        <mxCell id="QDihuIbp6Lw-h8ZXW96g-7" value="" style="edgeStyle=elbowEdgeStyle;fontSize=12;html=1;endArrow=blockThin;endFill=1;rounded=0;elbow=vertical;" parent="1" source="QDihuIbp6Lw-h8ZXW96g-15" target="QDihuIbp6Lw-h8ZXW96g-8" edge="1">
          <mxGeometry x="-0.0435" y="30" width="160" relative="1" as="geometry">
            <mxPoint x="600" y="90" as="sourcePoint" />
            <mxPoint x="830" y="90" as="targetPoint" />
            <Array as="points">
              <mxPoint x="725" y="90" />
            </Array>
            <mxPoint as="offset" />
          </mxGeometry>
        </mxCell>
        <mxCell id="QDihuIbp6Lw-h8ZXW96g-17" value="requestApplicationPage(application)" style="text;html=1;align=center;verticalAlign=middle;resizable=0;points=[];autosize=1;strokeColor=none;fillColor=none;" parent="1" vertex="1">
          <mxGeometry x="135" y="198" width="220" height="30" as="geometry" />
        </mxCell>
        <mxCell id="QDihuIbp6Lw-h8ZXW96g-20" value="" style="edgeStyle=elbowEdgeStyle;fontSize=12;html=1;endArrow=blockThin;endFill=1;rounded=0;" parent="1" source="CObYJEAy56xA2G8EUnc1-6" target="QDihuIbp6Lw-h8ZXW96g-30" edge="1">
          <mxGeometry width="160" relative="1" as="geometry">
            <mxPoint x="144.25" y="222" as="sourcePoint" />
            <mxPoint x="370" y="222" as="targetPoint" />
            <Array as="points">
              <mxPoint x="270.25" y="222" />
            </Array>
          </mxGeometry>
        </mxCell>
        <mxCell id="QDihuIbp6Lw-h8ZXW96g-22" value="" style="edgeStyle=elbowEdgeStyle;fontSize=12;html=1;endArrow=blockThin;endFill=1;rounded=0;" parent="1" edge="1">
          <mxGeometry width="160" relative="1" as="geometry">
            <mxPoint x="375" y="230" as="sourcePoint" />
            <mxPoint x="829.5" y="230" as="targetPoint" />
            <Array as="points">
              <mxPoint x="496" y="230" />
            </Array>
          </mxGeometry>
        </mxCell>
        <mxCell id="N4ezWAQjIMXn5G-POvpN-3" value="redirectToApplicationPage(application)" style="html=1;verticalAlign=bottom;endArrow=open;dashed=1;endSize=8;curved=0;rounded=0;" parent="1" source="QDihuIbp6Lw-h8ZXW96g-30" target="CObYJEAy56xA2G8EUnc1-6" edge="1">
          <mxGeometry x="0.0001" relative="1" as="geometry">
            <mxPoint x="365.00000000000006" y="310" as="sourcePoint" />
            <mxPoint x="139.30999999999997" y="310" as="targetPoint" />
            <Array as="points">
              <mxPoint x="275.50000000000006" y="310" />
            </Array>
            <mxPoint as="offset" />
          </mxGeometry>
        </mxCell>
        <mxCell id="jShqwbApxvPrVttutkd5-16" value="" style="html=1;points=[[0,0,0,0,5],[0,1,0,0,-5],[1,0,0,0,5],[1,1,0,0,-5]];perimeter=orthogonalPerimeter;outlineConnect=0;targetShapes=umlLifeline;portConstraint=eastwest;newEdgeStyle={&quot;curved&quot;:0,&quot;rounded&quot;:0};" parent="1" vertex="1">
          <mxGeometry x="1055" y="603" width="10" height="208" as="geometry" />
        </mxCell>
        <mxCell id="jShqwbApxvPrVttutkd5-19" value="writeToDb(interview)" style="html=1;align=left;spacingLeft=2;endArrow=block;rounded=0;edgeStyle=orthogonalEdgeStyle;curved=0;rounded=0;" parent="1" edge="1">
          <mxGeometry x="-1" y="-27" relative="1" as="geometry">
            <mxPoint x="1065" y="616" as="sourcePoint" />
            <Array as="points">
              <mxPoint x="1090" y="616" />
              <mxPoint x="1090" y="646" />
            </Array>
            <mxPoint x="1070" y="646" as="targetPoint" />
            <mxPoint x="-25" y="-17" as="offset" />
          </mxGeometry>
        </mxCell>
        <mxCell id="jShqwbApxvPrVttutkd5-20" value="" style="html=1;points=[[0,0,0,0,5],[0,1,0,0,-5],[1,0,0,0,5],[1,1,0,0,-5]];perimeter=orthogonalPerimeter;outlineConnect=0;targetShapes=umlLifeline;portConstraint=eastwest;newEdgeStyle={&quot;curved&quot;:0,&quot;rounded&quot;:0};" parent="1" vertex="1">
          <mxGeometry x="1060" y="636" width="10" height="21" as="geometry" />
        </mxCell>
        <mxCell id="jShqwbApxvPrVttutkd5-32" value="" style="group" parent="1" vertex="1" connectable="0">
          <mxGeometry x="120" y="334" width="663.0612244897959" height="42" as="geometry" />
        </mxCell>
        <mxCell id="jShqwbApxvPrVttutkd5-8" value="" style="edgeStyle=elbowEdgeStyle;fontSize=12;html=1;endArrow=blockThin;endFill=1;rounded=0;movable=1;resizable=1;rotatable=1;deletable=1;editable=1;locked=0;connectable=1;" parent="jShqwbApxvPrVttutkd5-32" source="jShqwbApxvPrVttutkd5-6" edge="1">
          <mxGeometry width="160" relative="1" as="geometry">
            <mxPoint x="250" y="38" as="sourcePoint" />
            <mxPoint x="705" y="38" as="targetPoint" />
            <Array as="points">
              <mxPoint x="532.1020408163265" y="38" />
            </Array>
          </mxGeometry>
        </mxCell>
        <mxCell id="jShqwbApxvPrVttutkd5-9" value="&lt;div&gt;furtherAssess(application)&lt;/div&gt;" style="text;html=1;align=center;verticalAlign=middle;resizable=1;points=[];autosize=1;strokeColor=none;fillColor=none;movable=1;rotatable=1;deletable=1;editable=1;locked=0;connectable=1;" parent="jShqwbApxvPrVttutkd5-32" vertex="1">
          <mxGeometry x="399.3265306122449" y="12" width="170" height="30" as="geometry" />
        </mxCell>
        <mxCell id="jShqwbApxvPrVttutkd5-31" value="" style="group" parent="jShqwbApxvPrVttutkd5-32" vertex="1" connectable="0">
          <mxGeometry width="215.51020408163265" height="30" as="geometry" />
        </mxCell>
        <mxCell id="jShqwbApxvPrVttutkd5-2" value="" style="edgeStyle=elbowEdgeStyle;fontSize=12;html=1;endArrow=blockThin;endFill=1;rounded=0;movable=1;resizable=1;rotatable=1;deletable=1;editable=1;locked=0;connectable=1;" parent="jShqwbApxvPrVttutkd5-31" target="jShqwbApxvPrVttutkd5-6" edge="1">
          <mxGeometry width="160" relative="1" as="geometry">
            <mxPoint y="26" as="sourcePoint" />
            <mxPoint x="240" y="26" as="targetPoint" />
            <Array as="points">
              <mxPoint x="147.1836734693877" y="26" />
            </Array>
          </mxGeometry>
        </mxCell>
        <mxCell id="jShqwbApxvPrVttutkd5-3" value="&lt;div&gt;furtherAssess(application)&lt;/div&gt;" style="text;html=1;align=center;verticalAlign=middle;resizable=1;points=[];autosize=1;strokeColor=none;fillColor=none;movable=1;rotatable=1;deletable=1;editable=1;locked=0;connectable=1;" parent="jShqwbApxvPrVttutkd5-31" vertex="1">
          <mxGeometry x="37.38775510204081" width="170" height="30" as="geometry" />
        </mxCell>
        <mxCell id="jShqwbApxvPrVttutkd5-61" value="&lt;div&gt;scheduleInterviewPage&lt;br&gt;&lt;/div&gt;" style="html=1;verticalAlign=bottom;endArrow=open;dashed=1;endSize=8;curved=0;rounded=0;" parent="1" edge="1">
          <mxGeometry x="0.0011" relative="1" as="geometry">
            <mxPoint x="825" y="405" as="sourcePoint" />
            <mxPoint x="375.0000000000001" y="405" as="targetPoint" />
            <Array as="points">
              <mxPoint x="800" y="405" />
            </Array>
            <mxPoint as="offset" />
          </mxGeometry>
        </mxCell>
        <mxCell id="jShqwbApxvPrVttutkd5-62" value="&lt;div&gt;redirectToScheduleInterviewPage(application)&lt;br&gt;&lt;/div&gt;" style="html=1;verticalAlign=bottom;endArrow=open;dashed=1;endSize=8;curved=0;rounded=0;" parent="1" edge="1">
          <mxGeometry x="0.0011" relative="1" as="geometry">
            <mxPoint x="365" y="419.5" as="sourcePoint" />
            <mxPoint x="120.10000000000002" y="419.5" as="targetPoint" />
            <Array as="points" />
            <mxPoint as="offset" />
          </mxGeometry>
        </mxCell>
        <mxCell id="jShqwbApxvPrVttutkd5-64" value="" style="edgeStyle=elbowEdgeStyle;fontSize=12;html=1;endArrow=blockThin;endFill=1;rounded=0;movable=1;resizable=1;rotatable=1;deletable=1;editable=1;locked=0;connectable=1;" parent="1" source="jShqwbApxvPrVttutkd5-69" edge="1">
          <mxGeometry width="160" relative="1" as="geometry">
            <mxPoint x="370" y="468" as="sourcePoint" />
            <mxPoint x="825" y="468" as="targetPoint" />
            <Array as="points">
              <mxPoint x="652.1020408163265" y="468" />
            </Array>
          </mxGeometry>
        </mxCell>
        <mxCell id="jShqwbApxvPrVttutkd5-65" value="scheduleInterview(interview)" style="text;html=1;align=center;verticalAlign=middle;resizable=1;points=[];autosize=1;strokeColor=none;fillColor=none;movable=1;rotatable=1;deletable=1;editable=1;locked=0;connectable=1;" parent="1" vertex="1">
          <mxGeometry x="514.3265306122448" y="442" width="180" height="30" as="geometry" />
        </mxCell>
        <mxCell id="jShqwbApxvPrVttutkd5-66" value="" style="group" parent="1" vertex="1" connectable="0">
          <mxGeometry x="120" y="430" width="215.51020408163265" height="30" as="geometry" />
        </mxCell>
        <mxCell id="jShqwbApxvPrVttutkd5-67" value="" style="edgeStyle=elbowEdgeStyle;fontSize=12;html=1;endArrow=blockThin;endFill=1;rounded=0;movable=1;resizable=1;rotatable=1;deletable=1;editable=1;locked=0;connectable=1;entryX=0.5;entryY=0;entryDx=0;entryDy=0;entryPerimeter=0;" parent="jShqwbApxvPrVttutkd5-66" target="jShqwbApxvPrVttutkd5-69" edge="1">
          <mxGeometry width="160" relative="1" as="geometry">
            <mxPoint y="26" as="sourcePoint" />
            <mxPoint x="240" y="26" as="targetPoint" />
            <Array as="points">
              <mxPoint x="147.1836734693877" y="26" />
            </Array>
          </mxGeometry>
        </mxCell>
        <mxCell id="jShqwbApxvPrVttutkd5-68" value="scheduleInterview(interview)" style="text;html=1;align=center;verticalAlign=middle;resizable=1;points=[];autosize=1;strokeColor=none;fillColor=none;movable=1;rotatable=1;deletable=1;editable=1;locked=0;connectable=1;" parent="jShqwbApxvPrVttutkd5-66" vertex="1">
          <mxGeometry x="32.38775510204081" width="180" height="30" as="geometry" />
        </mxCell>
        <mxCell id="jShqwbApxvPrVttutkd5-70" value="checkInterviewData(interview)" style="html=1;align=left;spacingLeft=2;endArrow=block;rounded=0;edgeStyle=orthogonalEdgeStyle;curved=0;rounded=0;" parent="1" edge="1">
          <mxGeometry x="-1" y="-65" relative="1" as="geometry">
            <mxPoint x="835" y="486" as="sourcePoint" />
            <Array as="points">
              <mxPoint x="860" y="486" />
              <mxPoint x="860" y="516" />
            </Array>
            <mxPoint x="840" y="516" as="targetPoint" />
            <mxPoint x="-65" y="-57" as="offset" />
          </mxGeometry>
        </mxCell>
        <mxCell id="jShqwbApxvPrVttutkd5-71" value="" style="html=1;points=[[0,0,0,0,5],[0,1,0,0,-5],[1,0,0,0,5],[1,1,0,0,-5]];perimeter=orthogonalPerimeter;outlineConnect=0;targetShapes=umlLifeline;portConstraint=eastwest;newEdgeStyle={&quot;curved&quot;:0,&quot;rounded&quot;:0};" parent="1" vertex="1">
          <mxGeometry x="830" y="505" width="10" height="21" as="geometry" />
        </mxCell>
        <mxCell id="jShqwbApxvPrVttutkd5-13" value="alternative" style="shape=umlFrame;whiteSpace=wrap;html=1;pointerEvents=0;width=80;height=30;" parent="1" vertex="1">
          <mxGeometry x="80" y="550" width="1050" height="440" as="geometry" />
        </mxCell>
        <mxCell id="jShqwbApxvPrVttutkd5-14" value="if checkInterviewData(interview)" style="text;html=1;align=center;verticalAlign=middle;resizable=0;points=[];autosize=1;strokeColor=none;fillColor=none;" parent="1" vertex="1">
          <mxGeometry x="123" y="577" width="190" height="30" as="geometry" />
        </mxCell>
        <mxCell id="jShqwbApxvPrVttutkd5-24" value="" style="endArrow=none;dashed=1;html=1;rounded=0;exitX=0;exitY=0.5;exitDx=0;exitDy=0;exitPerimeter=0;entryX=0.999;entryY=0.498;entryDx=0;entryDy=0;entryPerimeter=0;" parent="1" edge="1">
          <mxGeometry width="50" height="50" relative="1" as="geometry">
            <mxPoint x="81.03" y="870.66" as="sourcePoint" />
            <mxPoint x="1110.0000000000002" y="870.0000000000001" as="targetPoint" />
          </mxGeometry>
        </mxCell>
        <mxCell id="jShqwbApxvPrVttutkd5-25" value="else" style="text;html=1;align=center;verticalAlign=middle;resizable=0;points=[];autosize=1;strokeColor=none;fillColor=none;" parent="1" vertex="1">
          <mxGeometry x="120" y="870" width="50" height="30" as="geometry" />
        </mxCell>
        <mxCell id="jShqwbApxvPrVttutkd5-76" value="" style="edgeStyle=elbowEdgeStyle;fontSize=12;html=1;endArrow=blockThin;endFill=1;rounded=0;movable=1;resizable=1;rotatable=1;deletable=1;editable=1;locked=0;connectable=1;" parent="1" source="QDihuIbp6Lw-h8ZXW96g-28" target="jShqwbApxvPrVttutkd5-16" edge="1">
          <mxGeometry width="160" relative="1" as="geometry">
            <mxPoint x="719" y="603" as="sourcePoint" />
            <mxPoint x="1169" y="603" as="targetPoint" />
            <Array as="points">
              <mxPoint x="996.1020408163265" y="603" />
            </Array>
          </mxGeometry>
        </mxCell>
        <mxCell id="jShqwbApxvPrVttutkd5-77" value="scheduleInterview(interview)" style="text;html=1;align=center;verticalAlign=middle;resizable=1;points=[];autosize=1;strokeColor=none;fillColor=none;movable=1;rotatable=1;deletable=1;editable=1;locked=0;connectable=1;" parent="1" vertex="1">
          <mxGeometry x="858.3265306122448" y="577" width="180" height="30" as="geometry" />
        </mxCell>
        <mxCell id="jShqwbApxvPrVttutkd5-79" value="redirectToApplicationListPage(internship)" style="html=1;verticalAlign=bottom;endArrow=open;dashed=1;endSize=8;curved=0;rounded=0;" parent="1" source="jShqwbApxvPrVttutkd5-69" edge="1">
          <mxGeometry x="-0.0028" relative="1" as="geometry">
            <mxPoint x="365.0012807244502" y="764.7999999999998" as="sourcePoint" />
            <mxPoint x="120" y="765" as="targetPoint" />
            <mxPoint as="offset" />
          </mxGeometry>
        </mxCell>
        <mxCell id="jShqwbApxvPrVttutkd5-80" value="ok" style="html=1;verticalAlign=bottom;endArrow=open;dashed=1;endSize=8;curved=0;rounded=0;" parent="1" edge="1">
          <mxGeometry x="-0.0028" relative="1" as="geometry">
            <mxPoint x="1055.0030142302717" y="721" as="sourcePoint" />
            <mxPoint x="835" y="721" as="targetPoint" />
            <mxPoint as="offset" />
          </mxGeometry>
        </mxCell>
        <mxCell id="jShqwbApxvPrVttutkd5-81" value="ApplicationListPage" style="html=1;verticalAlign=bottom;endArrow=open;dashed=1;endSize=8;curved=0;rounded=0;" parent="1" edge="1" target="jShqwbApxvPrVttutkd5-69">
          <mxGeometry x="-0.0028" relative="1" as="geometry">
            <mxPoint x="824.9957567917206" y="737" as="sourcePoint" />
            <mxPoint x="605" y="737" as="targetPoint" />
            <mxPoint as="offset" />
          </mxGeometry>
        </mxCell>
        <mxCell id="jShqwbApxvPrVttutkd5-82" value="&lt;div&gt;scheduleInterviewPage(message)&lt;br&gt;&lt;/div&gt;" style="html=1;verticalAlign=bottom;endArrow=open;dashed=1;endSize=8;curved=0;rounded=0;" parent="1" edge="1">
          <mxGeometry x="-0.0043" relative="1" as="geometry">
            <mxPoint x="825" y="819" as="sourcePoint" />
            <mxPoint x="375" y="819" as="targetPoint" />
            <mxPoint as="offset" />
          </mxGeometry>
        </mxCell>
        <mxCell id="jShqwbApxvPrVttutkd5-83" value="error" style="html=1;verticalAlign=bottom;endArrow=open;dashed=1;endSize=8;curved=0;rounded=0;" parent="1" target="QDihuIbp6Lw-h8ZXW96g-28" edge="1">
          <mxGeometry x="-0.0028" relative="1" as="geometry">
            <mxPoint x="1055.0030142302717" y="811" as="sourcePoint" />
            <mxPoint x="763.6317335058216" y="811" as="targetPoint" />
            <mxPoint as="offset" />
          </mxGeometry>
        </mxCell>
        <mxCell id="jShqwbApxvPrVttutkd5-84" value="alternative" style="shape=umlFrame;whiteSpace=wrap;html=1;pointerEvents=0;width=70;height=30;" parent="1" vertex="1">
          <mxGeometry x="100" y="680" width="1010" height="180" as="geometry" />
        </mxCell>
        <mxCell id="jShqwbApxvPrVttutkd5-85" value="if writeToDb(interview)" style="text;html=1;align=center;verticalAlign=middle;resizable=0;points=[];autosize=1;strokeColor=none;fillColor=none;labelBackgroundColor=default;" parent="1" vertex="1">
          <mxGeometry x="118.91979301423027" y="710" width="140" height="30" as="geometry" />
        </mxCell>
        <mxCell id="jShqwbApxvPrVttutkd5-86" value="" style="endArrow=none;dashed=1;html=1;rounded=0;exitX=0.014;exitY=0.49;exitDx=0;exitDy=0;exitPerimeter=0;entryX=0.999;entryY=0.751;entryDx=0;entryDy=0;entryPerimeter=0;" parent="1" edge="1">
          <mxGeometry width="50" height="50" relative="1" as="geometry">
            <mxPoint x="103.91979301423022" y="782" as="sourcePoint" />
            <mxPoint x="1108.9939197930144" y="782.1599999999999" as="targetPoint" />
          </mxGeometry>
        </mxCell>
        <mxCell id="jShqwbApxvPrVttutkd5-87" value="else" style="text;html=1;align=center;verticalAlign=middle;resizable=0;points=[];autosize=1;strokeColor=none;fillColor=none;" parent="1" vertex="1">
          <mxGeometry x="118.92" y="781" width="50" height="30" as="geometry" />
        </mxCell>
        <mxCell id="jShqwbApxvPrVttutkd5-88" value="&lt;div&gt;redirectToScheduleInterviewPage(internship,message)&lt;br&gt;&lt;/div&gt;" style="html=1;verticalAlign=bottom;endArrow=open;dashed=1;endSize=8;curved=0;rounded=0;" parent="1" edge="1">
          <mxGeometry y="-4" relative="1" as="geometry">
            <mxPoint x="365" y="840" as="sourcePoint" />
            <mxPoint x="120.0017464424321" y="840" as="targetPoint" />
            <mxPoint as="offset" />
          </mxGeometry>
        </mxCell>
        <mxCell id="jShqwbApxvPrVttutkd5-90" value="&lt;div&gt;scheduleInterviewPage(message)&lt;br&gt;&lt;/div&gt;" style="html=1;verticalAlign=bottom;endArrow=open;dashed=1;endSize=8;curved=0;rounded=0;" parent="1" edge="1">
          <mxGeometry x="-0.0043" relative="1" as="geometry">
            <mxPoint x="825" y="910" as="sourcePoint" />
            <mxPoint x="375" y="910" as="targetPoint" />
            <mxPoint as="offset" />
          </mxGeometry>
        </mxCell>
        <mxCell id="jShqwbApxvPrVttutkd5-92" value="&lt;div&gt;redirectToScheduleInterviewPage(internship,message)&lt;br&gt;&lt;/div&gt;" style="html=1;verticalAlign=bottom;endArrow=open;dashed=1;endSize=8;curved=0;rounded=0;" parent="1" edge="1">
          <mxGeometry y="-4" relative="1" as="geometry">
            <mxPoint x="365" y="940" as="sourcePoint" />
            <mxPoint x="120.00174644243208" y="940" as="targetPoint" />
            <mxPoint as="offset" />
          </mxGeometry>
        </mxCell>
      </root>
    </mxGraphModel>
  </diagram>
</mxfile>
